# xmcd
#
# Track frame offsets:
#	182
#	23537
#	39232
#	54607
#	68195
#	82635
#	97375
#	118062
#	132265
#	152047
#
# Disc length: 2222 seconds
#
# Revision: 7
# Processed by: cddbd v1.5.2PL0 Copyright (c) Steve Scherf et al.
# Submitted via: EasyCDDAExtractor 15.3.0.1
#
DISCID=7a08ac0a
DTITLE=Olga Tañon - Nuevos Senderos
DYEAR=1996
DGENRE=Latin
TTITLE0=Mi Eterno Amor Secreto
TTITLE1=En Ti
TTITLE2=Cuestion De Suerte
TTITLE3=Mi Perdon
TTITLE4=El Daño Que Me Haces
TTITLE5=Siempre Estuve Cerca
TTITLE6=La Ultima Oportunidad
TTITLE7=Me Subes, Me Bajas, Me Subes
TTITLE8=¡Basta Ya!
TTITLE9=No Te Vas
EXTD=
EXTT0=
EXTT1=
EXTT2=
EXTT3=
EXTT4=
EXTT5=
EXTT6=
EXTT7=
EXTT8=
EXTT9=
PLAYORDER=
